<?xml version="1.0" standalone="no"?>
<!DOCTYPE svg PUBLIC "-//W3C//DTD SVG 20010904//EN"
 "http://www.w3.org/TR/2001/REC-SVG-20010904/DTD/svg10.dtd">
<svg version="1.0" xmlns="http://www.w3.org/2000/svg"
 width="300.000000pt" height="240.000000pt" viewBox="0 0 300.000000 240.000000"
 preserveAspectRatio="xMidYMid meet">
<metadata>
Created by potrace 1.10, written by Peter Selinger 2001-2011
</metadata>
<g transform="translate(0.000000,240.000000) scale(0.100000,-0.100000)"
fill="#000000" stroke="none">
<path d="M543 2231 c-33 -10 -87 -31 -120 -47 -79 -39 -201 -161 -242 -241
-58 -116 -61 -145 -55 -594 4 -378 6 -410 25 -470 25 -76 58 -135 117 -207 39
-48 43 -57 33 -80 -41 -110 -142 -458 -137 -478 7 -27 38 -39 63 -25 10 5 117
97 238 205 l220 195 315 2 c173 1 305 4 293 6 -57 11 -178 159 -203 249 l-13
44 -221 0 -221 0 -60 28 c-33 16 -74 45 -92 65 -57 65 -58 76 -58 492 l0 381
26 49 c14 28 44 64 67 82 79 60 105 63 524 63 349 0 382 -1 428 -19 71 -27
111 -60 142 -117 25 -46 26 -58 30 -219 4 -198 13 -224 88 -263 74 -38 154
-11 190 63 18 36 20 62 20 216 0 139 -4 188 -19 241 -48 176 -203 323 -399
379 -61 17 -102 19 -492 18 -374 0 -432 -3 -487 -18z m1033 -47 c85 -36 131
-69 202 -144 113 -116 134 -186 133 -434 -1 -148 -4 -173 -21 -200 -40 -66
-113 -82 -168 -36 -44 37 -50 63 -51 226 -1 84 -7 168 -13 186 -24 72 -75 125
-158 166 l-55 27 -400 0 c-373 0 -404 -1 -460 -20 -71 -24 -135 -82 -168 -153
-21 -46 -22 -56 -22 -427 0 -347 2 -384 19 -430 31 -83 108 -150 202 -174 22
-6 123 -11 224 -11 101 -1 192 -6 202 -11 10 -5 28 -33 42 -62 13 -29 40 -74
60 -100 20 -26 36 -52 36 -57 0 -6 -74 -10 -197 -11 -288 -1 -297 -2 -342 -34
-22 -15 -58 -44 -80 -66 -21 -21 -42 -39 -44 -39 -3 0 -20 -15 -39 -33 -56
-54 -198 -180 -231 -204 -22 -16 -34 -20 -43 -12 -7 6 -11 16 -9 22 2 7 18 59
36 117 17 58 43 141 57 185 30 94 31 98 38 150 5 34 2 44 -22 70 -36 39 -109
153 -118 185 -4 14 -12 41 -17 60 -15 51 -21 807 -7 878 35 185 198 354 391
407 42 11 137 14 502 12 l450 -2 71 -31z"/>
<path d="M1730 2233 c0 -2 18 -10 40 -19 64 -26 170 -158 192 -239 l11 -40
221 0 222 0 68 -34 c72 -35 115 -86 136 -161 6 -20 10 -190 10 -395 0 -401 -1
-403 -71 -473 -74 -75 -75 -75 -459 -85 -190 -4 -372 -6 -406 -3 -89 7 -166
40 -219 92 -65 66 -75 108 -75 332 0 210 -7 236 -71 279 -33 21 -47 25 -89 21
-54 -5 -90 -30 -116 -80 -20 -39 -20 -431 1 -511 50 -191 203 -344 405 -404
45 -13 126 -17 436 -22 l381 -6 222 -195 c122 -107 230 -199 241 -204 23 -10
60 16 60 43 0 9 -34 122 -75 251 l-74 235 48 50 c63 64 105 131 133 214 23 65
23 75 23 481 0 381 -2 420 -19 470 -33 97 -65 149 -138 225 -79 83 -184 145
-280 164 -45 8 -758 21 -758 14z m768 -44 c187 -53 340 -207 387 -390 15 -55
17 -117 16 -444 -1 -278 -5 -394 -15 -430 -21 -82 -67 -164 -128 -232 -32 -35
-58 -71 -58 -81 0 -10 11 -51 24 -92 147 -458 147 -464 -30 -304 -44 39 -95
84 -114 100 -19 16 -42 36 -50 44 -44 41 -99 89 -138 120 l-42 34 -358 3
c-212 2 -381 8 -417 14 -139 27 -291 133 -364 253 -64 107 -70 142 -71 391 -1
140 3 231 9 244 19 34 62 61 99 61 43 0 98 -35 111 -70 5 -14 11 -113 13 -220
4 -184 6 -198 30 -251 49 -106 142 -165 281 -177 82 -7 728 1 757 9 49 14 115
56 148 95 70 79 73 103 70 500 -4 391 -8 415 -74 492 -71 84 -143 103 -389
103 -88 0 -168 2 -178 5 -9 3 -29 29 -44 57 -26 53 -60 101 -100 145 -13 14
-20 29 -17 34 3 5 127 8 292 7 243 -2 297 -5 350 -20z"/>
</g>
</svg>
